<?xml version="1.0" encoding="UTF-8"?>
<svg version="1.1" xmlns="http://www.w3.org/2000/svg" width="980" height="980">
<path d="M0 0 C0.69109863 0.09945923 1.38219727 0.19891846 2.09423828 0.3013916 C33.7822673 4.86670558 64.59840294 11.85458739 95 22 C96.07588379 22.35819824 97.15176758 22.71639648 98.26025391 23.08544922 C152.92510549 41.50943514 204.94582738 70.71318522 249 108 C250.03073806 108.85738666 251.0620156 109.71412505 252.09375 110.5703125 C264.19210958 120.65327526 275.59247455 131.41965342 286.70458984 142.57421875 C288.39175958 144.26681347 290.08430196 145.95390597 291.77734375 147.640625 C297.39848831 153.25807481 302.87121264 158.92287083 308 165 C308.845625 165.96421875 309.69125 166.9284375 310.5625 167.921875 C372.99125362 240.35523658 410.44822404 329.83464222 424 424 C424.18079102 425.22589844 424.36158203 426.45179688 424.54785156 427.71484375 C430.05502531 466.99861988 429.78406543 510.7797061 424 550 C423.90054077 550.69109863 423.80108154 551.38219727 423.6986084 552.09423828 C419.13329442 583.7822673 412.14541261 614.59840294 402 645 C401.64180176 646.07588379 401.28360352 647.15176758 400.91455078 648.26025391 C380.63028389 708.44464855 347.22370092 765.85146245 304.16015625 812.62890625 C302.97999413 813.92431024 301.80731266 815.22735686 300.67431641 816.56420898 C295.14792935 823.05294075 289.13651221 829.04958305 283.11328125 835.07202148 C281.26271033 836.92477468 279.42029924 838.78538706 277.578125 840.64648438 C271.40484658 846.84832985 265.1902897 852.74073784 258.30810547 858.15942383 C256.07408017 859.94092549 253.96990084 861.80806874 251.875 863.75 C244.9553685 869.95677426 237.44338472 875.4445689 230 881 C228.92202148 881.80727539 228.92202148 881.80727539 227.82226562 882.63085938 C160.82177586 932.59216918 82.35246001 962.14827327 0 974 C-1.22589844 974.18079102 -2.45179688 974.36158203 -3.71484375 974.54785156 C-42.99861988 980.05502531 -86.7797061 979.78406543 -126 974 C-126.69109863 973.90054077 -127.38219727 973.80108154 -128.09423828 973.6986084 C-211.29635866 961.71162736 -288.99163906 930.90967076 -378.64599609 862.88305664 C-380.78773984 861.03483028 -382.94365242 859.20664718 -385.11865234 857.39770508 C-393.82438959 850.11744396 -401.93141634 842.34914593 -409.91625977 834.28955078 C-411.95462493 832.23271993 -414.00108947 830.18421383 -416.04882812 828.13671875 C-417.37547536 826.80516094 -418.70166398 825.47314601 -420.02734375 824.140625 C-420.92440285 823.24189667 -420.92440285 823.24189667 -421.83958435 822.32501221 C-426.07962335 818.03792231 -430.06640123 813.5684081 -434 809 C-434.845625 808.03578125 -435.69125 807.0715625 -436.5625 806.078125 C-498.98840332 733.6480705 -536.4495279 644.1562978 -550 550 C-550.18079102 548.77410156 -550.36158203 547.54820312 -550.54785156 546.28515625 C-556.05502531 507.00138012 -555.78406543 463.2202939 -550 424 C-549.85081116 422.96335205 -549.85081116 422.96335205 -549.6986084 421.90576172 C-545.13329442 390.2177327 -538.14541261 359.40159706 -528 329 C-527.64180176 327.92411621 -527.28360352 326.84823242 -526.91455078 325.73974609 C-507.47299325 268.05571065 -476.07355974 213.8176619 -436 168 C-435.36964844 167.27039063 -434.73929687 166.54078125 -434.08984375 165.7890625 C-432.40573185 163.84792214 -430.70400821 161.92368871 -429 160 C-428.09834106 158.97108643 -428.09834106 158.97108643 -427.1784668 157.92138672 C-421.10223493 151.06410149 -414.71324322 144.55969612 -408.22485352 138.09448242 C-406.4332405 136.3082533 -404.64706945 134.51670653 -402.86132812 132.72460938 C-397.07706327 126.93673268 -391.26467748 121.27285455 -385 116 C-384.03578125 115.154375 -383.0715625 114.30875 -382.078125 113.4375 C-309.64476342 51.00874638 -220.16535778 13.55177596 -126 0 C-124.16115234 -0.27118652 -124.16115234 -0.27118652 -122.28515625 -0.54785156 C-83.00138012 -6.05502531 -39.2202939 -5.78406543 0 0 Z M-126 118 C-127.24265625 118.42796875 -128.4853125 118.8559375 -129.765625 119.296875 C-165.70534508 132.75447943 -197.95659412 157.43075794 -220.74121094 188.296875 C-221.97069396 189.96034931 -223.22216212 191.60527552 -224.4765625 193.25 C-247.39905973 223.79363678 -261.99960763 261.41990284 -268 299 C-268.16081055 299.99290039 -268.32162109 300.98580078 -268.48730469 302.00878906 C-272.72468729 329.39888072 -272.427913 357.66052112 -268 385 C-267.8443457 385.97485352 -267.68869141 386.94970703 -267.52832031 387.95410156 C-258.48663207 442.07790005 -229.92513401 497.83600688 -186 532 C-185.34 532 -184.68 532 -184 532 C-184 532.66 -184 533.32 -184 534 C-184.64469238 534.16072998 -185.28938477 534.32145996 -185.95361328 534.48706055 C-214.68813929 541.95087287 -244.06100361 556.0125193 -269 572 C-269.72155273 572.46083984 -270.44310547 572.92167969 -271.18652344 573.39648438 C-295.08421173 588.76734615 -316.5262225 606.51122164 -336.6875 626.5 C-337.56647949 627.36592773 -338.44545898 628.23185547 -339.35107422 629.12402344 C-345.33691086 635.10198546 -350.74901982 641.3718865 -356 648 C-356.60110596 648.74185547 -357.20221191 649.48371094 -357.8215332 650.24804688 C-389.94541828 689.89598785 -412.26904841 738.43326562 -420 789 C-420.20625 790.2375 -420.4125 791.475 -420.625 792.75 C-420.57544066 797.94381893 -417.12301347 800.8003009 -413.65234375 804.3125 C-411.65763195 806.33365128 -409.82503246 808.34861554 -407.98828125 810.50390625 C-403.23019205 815.98338524 -398.09717438 821.08885987 -392.96777344 826.2175293 C-391.26205402 827.92543056 -389.56450973 829.64118045 -387.8671875 831.35742188 C-381.94219141 837.31210588 -375.94254973 842.91348372 -369.34326172 848.12426758 C-367.10000362 849.91994918 -364.98184625 851.79733313 -362.875 853.75 C-297.01347386 912.81442914 -208.63249888 947.20061395 -122.08569336 959.6986084 C-120.16121947 959.9767031 -118.23778289 960.26195119 -116.31445312 960.54785156 C-78.24346366 965.96043147 -37.04946352 965.46534058 1 960 C2.40461641 959.80464444 3.80923904 959.60933365 5.21386719 959.4140625 C91.42629756 947.23394649 173.29718907 911.88727872 260 839 C260.92167969 838.17113281 261.84335937 837.34226562 262.79296875 836.48828125 C268.45057328 831.36878442 273.96762925 826.1336794 279.375 820.75 C280.23109863 819.90078979 280.23109863 819.90078979 281.10449219 819.03442383 C282.20886562 817.92601158 283.30287644 816.80716794 284.38574219 815.67773438 C285.48087077 814.53954266 286.60272418 813.42658661 287.74707031 812.33789062 C290.75110852 809.27929753 292.38300156 807.13081163 292.4765625 802.7578125 C292.36171506 801.16808219 292.20010387 799.58126242 292 798 C291.90041992 797.14374023 291.80083984 796.28748047 291.69824219 795.40527344 C291.31852221 792.54867385 290.86161103 789.71531472 290.375 786.875 C290.19606201 785.82876465 290.01712402 784.7825293 289.83276367 783.70458984 C280.15722129 729.35668876 255.00695934 680.51261062 219 639 C218.3296875 638.21625 217.659375 637.4325 216.96875 636.625 C206.46615565 624.62203503 195.10419047 612.74430204 182.5 602.9453125 C179.77130516 600.82204682 177.17872705 598.57262948 174.5625 596.3125 C146.67956037 573.13054505 92.60186053 534 55 534 C58.0511899 530.89833085 61.16407281 527.91761817 64.40063477 525.00683594 C111.17329038 482.76793644 137.90662089 421.48338788 141.859375 358.92431641 C144.66543558 300.57189692 130.63198311 240.21465256 95 193 C94.33170166 192.1028125 94.33170166 192.1028125 93.64990234 191.1875 C86.97689508 182.27414881 79.68946596 174.0445351 72 166 C71.36449219 165.32324219 70.72898437 164.64648438 70.07421875 163.94921875 C65.12889099 158.81504793 59.58803724 154.41082406 54 150 C53.09507812 149.278125 52.19015625 148.55625 51.2578125 147.8125 C24.96955867 127.42271864 -6.08650317 113.96982313 -39 109 C-39.65943604 108.89905029 -40.31887207 108.79810059 -40.99829102 108.6940918 C-69.63748774 104.91730831 -98.84352224 108.60808142 -126 118 Z " fill="#020202" transform="translate(553,3)"/>
</svg>
